<?xml version="1.0" encoding="UTF-8"?>
<svg id="sheetmaker" xmlns="http://www.w3.org/2000/svg" viewBox="0 0 512 512">
  <path id="logo" fill="white" d="M498.78,461.47c-14.42,27.4-43.59,46.16-75.75,46.17l-333.66.06c-19.1,0-36.94-7.32-51.63-18.19-21.92-16.22-33.44-40.52-33.44-67.02l.02-334.37c0-21.36,7.8-40.83,22.67-56.38C44.32,13.61,68.17,4.29,93.85,4.3l328.05.13c20.41,0,39.33,6.87,54.89,19.4,18.33,14.77,30.78,36.57,30.78,60.21l.12,339.74c0,13.3-2.54,25.57-8.91,37.68ZM424.4,483.03c19.42,0,36.41-10.44,47.03-24.83,7.93-10.75,11.2-23.14,11.19-36.41l-.33-337.05c-.03-29.27-27.35-54.59-57.52-54.62l-330.93-.36c-19.41-.02-37.02,6.2-49.66,20.73-8.59,9.87-14.41,22.18-14.41,35.67l.04,340.21c0,15.63,8.23,29.91,19.18,40.56,11.38,11.07,25.94,16.26,42.08,16.25l333.32-.14ZM331.87,269.61l-28.46.23-.07-42.97-105.56,94.01-75.84,67.14,96.98.06.02-61.21,29.22-25.99.12,112.87-150.45-.02c-.11,9.27,6.94,17.53,17.55,19.47h282.35c10.22-2.19,16.56-10.5,16.67-19.46h-151.1s.5-127.96.5-127.96l151.42-.03.16-75.95h-64.93s.04-25.4.04-25.4l55.07-.22c14.7-.06,27.69-5.8,38.06-14.86l-.23,244.78c-.01,13.68-6.9,26.51-17.96,35.22-6.76,5.33-15.8,10.25-25.36,10.25l-285.52-.23c-23.18-.02-46.16-21.56-46.21-44.81l-.2-97.95c-.04-21.68,19-38.84,43.25-39.01l68.96.02-28.01,25.08-38.8.03c-7.86.52-16,6.21-16.02,13.86l-.16,58.41,69.6-62.88,115.55-103.07-49.79-.11.03-26.9,99.11-.04v87.66ZM292.62,311.51l-.02,75.78,122.61.02.02-75.78-122.61-.02ZM113.4,86.27c-10.61,1.17-16.05,8.55-16.05,17.44l.02,128.73,133.72.04-28.41,25.2-89.77.04c-17.19.55-32.1,7.18-44.05,18.78l.4-177.33c.05-20.75,21.31-38.38,44.45-38.39l284.83-.09c24.19,0,44.24,17.27,45.07,38.66l.16,32.71c-1.97,19.54-18.9,33.92-40.85,35.95l-100.64.04v-81.8s-188.89,0-188.89,0ZM415.48,127.56v-27.32c-.9-7.35-7.04-13.05-15.39-13.98h-69s-.01,56.35-.01,56.35h66.71c9.88.57,17.89-5.96,17.7-15.05Z"/>
</svg>