<?xml version="1.0" encoding="UTF-8"?>
<svg id="ref_-_copie" data-name="ref - copie" xmlns="http://www.w3.org/2000/svg" viewBox="0 0 512 512">
  <path fill="white" d="M351.46,267.93l-35.79.29-.09-54.04-132.76,118.23-95.38,84.44,121.97.08.02-76.98,36.75-32.69.15,141.95-189.2-.02c-.14,11.66,8.73,22.04,22.07,24.48h355.09c12.86-2.76,20.82-13.2,20.97-24.48h-190.03s.63-160.92.63-160.92l190.43-.03.2-95.52h-81.66s.05-31.95.05-31.95l69.25-.28c18.49-.07,34.83-7.3,47.86-18.69l-.29,307.85c-.02,17.21-8.68,33.34-22.58,44.29-8.5,6.7-19.87,12.9-31.9,12.89l-359.07-.28c-29.16-.02-58.05-27.11-58.11-56.36l-.25-123.18c-.06-27.26,23.9-48.84,54.39-49.06l86.72.02-35.23,31.54-48.8.03c-9.89.66-20.12,7.81-20.15,17.44l-.2,73.46,87.53-79.08,145.32-129.63-62.61-.14.04-33.83,124.64-.04v110.24ZM302.11,320.62l-.02,95.3,154.2.02.02-95.3-154.2-.02Z"/>
  <path fill="white" d="M76.71,37.35c-13.34,1.47-20.18,10.75-20.18,21.93l.03,161.89,168.17.05-35.73,31.69-112.9.06c-21.62.69-40.37,9.03-55.4,23.62l.51-223.01c.06-26.1,26.81-48.27,55.9-48.28l358.21-.11c30.42,0,55.63,21.72,56.68,48.62l.2,41.14c-2.48,24.57-23.77,42.66-51.37,45.22l-126.57.05V37.34s-237.55.01-237.55.01ZM456.62,89.29v-34.36c-1.14-9.24-8.86-16.41-19.36-17.59h-86.78s-.02,70.87-.02,70.87h83.89c12.43.71,22.5-7.49,22.26-18.93Z"/>
</svg>