<?xml version="1.0" encoding="UTF-8"?>
<svg id="icons" xmlns="http://www.w3.org/2000/svg" viewBox="0 0 512 512" fill="currentColor">
  <path id="arriere-plan" d="M135.29,379.69h-47.61c-32.44,0-58.74-26.3-58.74-58.74V90.66c0-32.44,26.3-58.74,58.74-58.74h230.29c32.44,0,58.74,26.3,58.74,58.74v41.65h-32.49v-41.65c0-14.47-11.78-26.25-26.25-26.25H87.68c-14.47,0-26.25,11.78-26.25,26.25v230.29c0,14.47,11.78,26.25,26.25,26.25h47.61v32.49ZM344.22,320.95v-188.65h-150.19c-32.44,0-58.74,26.3-58.74,58.74v156.16h182.68c14.47,0,26.25-11.78,26.25-26.25ZM424.32,132.31h-47.61v188.65c0,32.44-26.3,58.74-58.74,58.74h-182.68v41.65c0,32.44,26.3,58.74,58.74,58.74h230.29c32.44,0,58.74-26.3,58.74-58.74v-230.29c0-32.44-26.3-58.74-58.74-58.74Z"/>
</svg>