<?xml version="1.0" encoding="UTF-8"?>
<svg id="icons" xmlns="http://www.w3.org/2000/svg" viewBox="0 0 512 512" fill="currentColor">
  <path id="premier-plan" d="M410.74,480.08h-203.13c-39.94,0-72.32-32.38-72.32-72.32v-203.13c0-39.94,32.38-72.32,72.32-72.32h203.13c39.94,0,72.32,32.38,72.32,72.32v203.13c0,39.94-32.38,72.32-72.32,72.32ZM317.97,64.41H87.68c-14.47,0-26.25,11.78-26.25,26.25v230.29c0,14.47,11.78,26.25,26.25,26.25h230.29c14.47,0,26.25-11.78,26.25-26.25V90.66c0-14.47-11.78-26.25-26.25-26.25M317.97,31.92c32.44,0,58.74,26.3,58.74,58.74v230.29c0,32.44-26.3,58.74-58.74,58.74H87.68c-32.44,0-58.74-26.3-58.74-58.74V90.66c0-32.44,26.3-58.74,58.74-58.74h230.29Z"/>
</svg>